PathFileType	4	(X/Y/Z)	C:\Users\ebm\Documents\Erivelton\Erivelton2\wc2.trc
DataRate	CameraRate	NumFrames	NumMarkers	Units	OrigDataRate	OrigDataStartFrame	OrigNumFrames
150.00	150.00	      6	28	mm	150.00	1042	      1389
Frame#	Time	IJ			PX			C7			T8			RAC			RAS			RPS			RAI			RPI			RLE			RME			RRS			RUS			R3M			R5M			LAC			LAS			LPS			LAI			LPI			LLE			LME			LRS			LUS			L3M			L5M			RW			LW			V_mid_elbow_r			V_mid_elbow_l			V_mid_wrist_r			V_mid_wrist_l			V_mid_trunk_low			V_mid_trunk_upp			
		X1	Y1	Z1	X2	Y2	Z2	X3	Y3	Z3	X4	Y4	Z4	X5	Y5	Z5	X6	Y6	Z6	X7	Y7	Z7	X8	Y8	Z8	X9	Y9	Z9	X10	Y10	Z10	X11	Y11	Z11	X12	Y12	Z12	X13	Y13	Z13	X14	Y14	Z14	X15	Y15	Z15	X16	Y16	Z16	X17	Y17	Z17	X18	Y18	Z18	X19	Y19	Z19	X20	Y20	Z20	X21	Y21	Z21	X22	Y22	Z22	X23	Y23	Z23	X24	Y24	Z24	X25	Y25	Z25	X26	Y26	Z26	X27	Y27	Z27	X28	Y28	Z28	

1042	6.940	3780.68506	1032.20215	-31.64465	3796.39404	863.54572	-18.47304	3643.43945	1124.29297	-38.60862	3574.96875	975.00781	-28.00360	3716.39087	1061.10168	172.25542	3774.54517	875.85474	220.71391	3726.12842	873.59479	237.95694	3792.86157	802.44849	240.60156	3742.57935	796.66962	258.65054	3762.74512	734.72754	265.66516	3734.28027	711.57336	197.76906	3961.58643	539.82855	245.84976	3921.41479	538.64514	293.39563				3940.27808	468.22321	313.52103	3704.40405	1055.53857	-220.97592	3733.87598	899.80328	-297.37503	3686.93213	886.99139	-295.79047	3759.51074	827.35339	-322.66510	3707.17920	809.71112	-321.30032	3766.58789	741.96191	-348.48157	3720.84570	713.37823	-295.43243	3961.65576	551.41724	-311.83441	3925.36475	534.56000	-363.46176				3934.30396	473.41647	-372.31360	3717.97925	294.02606	288.71848	3714.63330	299.35861	-339.93784	
1043	6.947	3788.48193	1032.70984	-31.80220	3804.24170	864.17798	-18.61651	3651.05688	1124.50000	-38.77262	3582.85742	975.20331	-28.11761	3723.62305	1061.53101	172.18637	3780.90576	876.24097	221.39255	3732.46558	874.12952	238.36028	3798.91553	802.72626	241.44449	3748.70752	797.24799	259.43277	3768.67822	735.22937	266.51086	3739.75049	711.86621	198.92003	3969.10254	541.60822	245.46194	3928.69995	539.92126	292.85760				3948.18237	469.59879	312.71298	3711.81909	1055.95435	-221.08272	3740.44141	900.36884	-298.12680	3693.49097	887.56653	-296.30240	3765.76929	827.93414	-323.84030	3713.64502	810.23157	-322.10574	3772.79077	742.32001	-349.64600	3727.09546	713.81567	-296.88962				3933.57178	536.47882	-362.98520				3942.85938	475.51041	-371.93408	3725.84326	294.06540	288.63654	3722.49805	299.29916	-339.98578	
1044	6.953	3796.09106	1033.03931	-31.86601	3812.02979	864.50836	-18.84686	3658.67358	1124.78589	-38.95938	3590.42700	975.39551	-28.32827	3730.70459	1061.92639	172.05589	3787.03809	876.54285	222.06877	3738.73486	874.66614	238.89603	3804.72070	803.06195	242.44348	3754.35449	797.76105	260.22906	3774.26831	735.54004	267.60956	3745.19897	712.14813	200.21657				3935.61011	541.15802	292.55716				3955.88281	471.05753	311.98013	3719.01123	1056.22156	-221.31670	3746.84717	901.03455	-298.80035	3699.89697	888.11053	-296.81149	3772.02881	828.61914	-325.07037	3719.64429	810.89502	-322.97519	3778.70117	742.73773	-351.02277	3733.29272	714.22235	-298.24725				3941.53174	538.41492	-362.51013				3951.48169	477.54779	-371.52740	3733.67749	294.11984	288.58771	3730.20996	299.29276	-340.03683	
1045	6.960	3803.77637	1033.38928	-31.91727	3819.69092	864.79260	-18.80458	3666.45337	1124.92017	-39.29383	3598.27368	975.43268	-28.48271	3737.87891	1062.35608	172.06877	3793.28564	876.84900	222.84973	3744.75317	875.20251	239.39191	3810.38257	803.24536	243.42456	3759.95215	798.29968	261.05911	3779.80786	735.77887	268.57495	3750.72559	712.48523	201.22620				3942.23242	542.29303	292.30225				3963.36035	472.25635	311.13345	3726.14771	1056.44495	-221.44057	3753.26904	901.47498	-299.69678	3706.22461	888.64191	-297.35104	3778.18408	829.20319	-326.41129	3725.72559	811.58508	-323.98288	3784.78271	743.13995	-352.64847	3739.12280	714.63770	-299.89264				3949.17261	540.30212	-362.07968				3959.61865	479.45056	-371.14438	3741.47314	294.13910	288.50766	3736.68750	299.08478	-339.72076	
1046	6.967	3811.44604	1033.60974	-32.00451	3827.47974	865.12079	-18.81619	3673.91333	1125.04395	-39.38369	3606.06372	975.43994	-28.67130	3744.98779	1062.64978	171.95085	3799.18433	877.03815	223.64806	3750.64502	875.69946	239.87709	3815.86792	803.38928	244.51099	3765.36646	798.80902	261.99377	3784.94141	736.08093	269.71143	3755.69800	712.60547	202.54494				3948.67017	543.42987	292.19293				3970.66089	473.63177	310.55005	3733.44360	1056.73657	-221.49026	3759.47632	901.95782	-300.53027	3712.52734	889.27484	-297.83951	3784.15063	829.78748	-327.71381	3731.77100	812.29846	-324.93417	3790.63477	743.60889	-354.08038	3745.10425	715.02081	-301.38608				3956.75952	541.94000	-361.95340				3967.73438	481.25397	-370.89584	3749.28247	294.11813	288.45776	3744.63892	298.94220	-339.78772	
1047	6.973	3819.06274	1033.77832	-32.05826	3835.23950	865.23199	-18.79078	3681.55420	1125.07385	-39.48448	3614.03296	975.52234	-28.92471	3752.13379	1062.88049	171.82974	3805.05566	877.16071	224.53352	3756.46143	876.15424	240.32625	3821.19775	803.51825	245.71281	3770.21045	799.25842	262.75659	3789.87109	736.27765	270.86292	3760.39380	712.93475	203.76312				3954.96094	544.55804	292.09418				3977.58081	474.93915	310.17026	3740.71509	1056.99719	-221.65656	3765.83667	902.36560	-301.40320	3718.83984	889.85321	-298.29474	3790.00854	830.27112	-329.10742	3737.47217	812.86298	-325.77316	3796.10059	743.90216	-355.69540	3750.65918	715.31305	-303.08551				3963.72266	543.50262	-361.73328				3975.37866	482.95798	-370.95261	3757.08667	294.10800	288.37823	3752.65576	298.83270	-339.84760	
